<?xml version="1.0" encoding="utf-8"?>
<!-- Generator: Adobe Illustrator 24.1.0, SVG Export Plug-In . SVG Version: 6.00 Build 0)  -->
<svg version="1.1" id="Ebene_1" xmlns="http://www.w3.org/2000/svg" xmlns:xlink="http://www.w3.org/1999/xlink" x="0px" y="0px"
	 viewBox="0 0 841.89 595.28" style="enable-background:new 0 0 841.89 595.28;" xml:space="preserve">
<style type="text/css">
	.st0{fill:#B3A064;}
	.st1{fill:none;stroke:#222221;stroke-width:2.2616;stroke-linecap:round;stroke-miterlimit:10;}
</style>
<g>
	<g>
		<path class="st0" d="M290.51,166.8c0-4.41-2.02-8.57-6.05-12.48c-5.8-5.55-13.81-8.32-24.02-8.32c-8.96,0-18.85,1.96-29.7,5.86
			c-5.67,2.02-10.59,4.8-14.75,8.32c-6.43,5.55-9.65,11.1-9.65,16.65c0,7.44,4.73,14.12,14.19,20.05
			c3.53,2.15,10.62,5.65,21.28,10.5c10.65,4.86,18.44,8.8,23.36,11.82c7.44,4.54,12.58,9.4,15.42,14.57
			c2.84,5.17,4.26,9.96,4.26,14.38c0,6.31-2.08,12.74-6.24,19.29c-7.31,11.73-18.04,21.82-32.16,30.26
			c-16.27,9.84-35.88,14.75-58.83,14.75c-22.07,0-39.6-5.61-52.59-16.83c-10.09-8.57-15.13-19.61-15.13-33.1
			c0-8.57,3.12-18.03,9.36-28.37c6.24-10.34,13.9-17.65,22.98-21.94c1.89-0.76,3.31-1.01,4.26-0.76c0.95,0.25,0.16,1.45-2.36,3.59
			c-5.42,4.29-9.78,9.02-13.05,14.19c-7.06,11.1-10.59,23.14-10.59,36.13c0,8.58,2.39,16.08,7.19,22.51
			c8.57,11.47,23.46,17.97,44.64,19.48c2.39,0.25,5.96,0.38,10.69,0.38c4.73,0,11.16-0.85,19.29-2.55
			c8.13-1.7,15.98-4.51,23.55-8.42c16.27-8.57,26.8-19.67,31.59-33.29c1.51-4.03,2.27-7.94,2.27-11.73c0-8.57-3.85-16.14-11.54-22.7
			c-4.16-3.28-12.64-7.66-25.44-13.15c-12.8-5.48-21.41-9.68-25.82-12.58c-9.71-6.56-14.56-14.31-14.56-23.27
			c0-7.82,4.35-15.45,13.05-22.89c12.48-10.59,30.14-15.89,52.97-15.89c10.72,0,19.45,1.61,26.2,4.82
			c6.74,3.21,10.88,8.04,12.39,14.47c0.25,1.26,0.38,2.53,0.38,3.78c0,4.92-2.27,9.34-6.81,13.24c-3.15,2.53-7.38,4.54-12.67,6.05
			c-2.27,0.63-3.53,0.38-3.78-0.76c-0.26-1.64,1.32-2.65,4.73-3.03c6.05-0.76,9.77-3.78,11.16-9.08
			C290.32,169.38,290.51,168.06,290.51,166.8z"/>
		<path class="st0" d="M309.61,266.11c-1.77,4.29-2.65,9.08-2.65,14.38c0,3.53,0.79,6.34,2.37,8.42c1.57,2.08,3.81,3.12,6.71,3.12
			c11.47,0,21.88-10.78,31.21-32.35c0.88-2.02,1.95-2.9,3.21-2.65c0.5,0.13,0.76,0.44,0.76,0.95c0,0.51-1.42,3.81-4.26,9.93
			c-2.84,6.12-5.71,11.07-8.61,14.85c-6.43,8.83-14.38,13.24-23.83,13.24c-5.04,0-9.33-1.64-12.86-4.92
			c-3.53-3.28-5.3-7.75-5.3-13.43s1.35-11.7,4.07-18.07c2.71-6.37,6.4-12.3,11.07-17.78c4.66-5.49,10.03-9.49,16.08-12.01
			c2.9-1.26,5.67-1.89,8.32-1.89s5.11,0.76,7.38,2.27c2.14,1.77,3.22,3.72,3.22,5.87c0,7.57-4.54,14.82-13.62,21.75
			c-2.78,2.15-6.69,4.07-11.73,5.77C316.11,265.26,312.26,266.11,309.61,266.11z M341.39,235.84c0-2.52-1.01-3.78-3.03-3.78
			c-3.53,0-8.89,4.35-16.08,13.05c-4.29,5.3-8.07,11.22-11.35,17.78c2.14,0,5.26-0.76,9.36-2.27c4.1-1.51,7.66-3.53,10.69-6.05
			C337.92,248.64,341.39,242.4,341.39,235.84z"/>
		<path class="st0" d="M381.49,286.73c0,3.53,1.26,5.3,3.78,5.3c5.93,0,14.31-11.1,25.16-33.29c0.88-1.76,1.67-2.46,2.36-2.08
			c0.69,0.38,1.04,0.88,1.04,1.51c0,0.63-0.73,2.43-2.18,5.39c-1.45,2.97-2.9,5.8-4.35,8.51c-1.45,2.71-3.56,6.27-6.34,10.69
			C395.18,291.58,389,296,382.44,296c-4.29,0-7.69-1.76-10.21-5.3c-1.13-1.64-1.7-3.88-1.7-6.72c0-2.84,0.63-6.27,1.89-10.31
			c1.26-4.03,4.73-10.59,10.4-19.67c1.39-2.27,2.08-4.07,2.08-5.39c0-1.33-1.07-1.99-3.21-1.99c-2.15,0-6.24,2.84-12.3,8.51
			c-9.08,8.32-17.91,20.81-26.48,37.45c-0.88,1.89-3.21,2.84-7,2.84c-3.4,0.25-5.55,0.63-6.43,1.13
			c23.96-49.81,41.3-84.56,52.02-104.23c2.39-4.41,4.51-7.5,6.34-9.27c1.83-1.76,4-2.65,6.53-2.65c0.63,0,1.96,0.16,3.97,0.47
			c2.02,0.32,3.53,0.41,4.54,0.28c-3.78,3.91-10.56,14.72-20.34,32.44c-9.77,17.72-19.14,35.72-28.09,54.01
			c5.93-7.44,11.26-13.24,15.98-17.4c4.73-4.16,10.5-8.1,17.31-11.82c6.81-3.72,11.79-5.58,14.94-5.58c0.76,0,1.45,0.13,2.08,0.38
			C389.25,260.43,381.49,278.28,381.49,286.73z"/>
		<path class="st0" d="M436.16,219.39c0,5.67-3.6,11.03-10.78,16.08c2.52,0.13,5.89,0.19,10.12,0.19c4.22,0,9.55-0.31,15.98-0.95
			c0.25,0.38,0.38,1.39,0.38,3.03c0,1.64-0.76,4.07-2.27,7.28c-1.51,3.22-2.87,5.99-4.07,8.32c-1.2,2.34-2.34,4.54-3.4,6.62
			c-1.07,2.08-2.27,4.63-3.6,7.66c-1.32,3.03-2.43,5.8-3.31,8.32c-3.15,9.58-2.65,14.38,1.51,14.38c5.3,0,13.11-10.53,23.46-31.59
			c0.88-1.64,1.61-2.27,2.18-1.89c0.57,0.38,0.85,0.85,0.85,1.42c0,0.57-0.82,2.53-2.46,5.87c-1.64,3.34-3.4,6.78-5.3,10.31
			c-1.89,3.53-4.86,7.63-8.89,12.3c-4.79,5.8-9.39,8.7-13.81,8.7c-4.92,0-8.32-2.96-10.21-8.89c-0.38-1.14-0.57-2.84-0.57-5.11
			s0.73-5.3,2.18-9.08c1.45-3.78,3.75-8.39,6.9-13.81c3.15-5.42,4.92-8.61,5.3-9.55c0.38-0.95,0.57-1.86,0.57-2.74
			c0-3.91-5.05-5.99-15.13-6.24l-2.27,6.05c-7.94,20.81-15.58,34.74-22.89,41.81c-1.26,1.13-1.89,0.76-1.89-1.13
			c0-0.38,0.13-0.82,0.38-1.33c7.06-9.33,13.18-20.36,18.35-33.1c5.17-12.74,8.76-24.84,10.78-36.32c0.76-3.91,2.52-5.87,5.3-5.87
			c2.77,0,4.79,1.77,6.05,5.3C435.97,216.55,436.16,217.87,436.16,219.39z"/>
		<path class="st0" d="M467.18,291.08c2.39,0,4.92-1.2,7.57-3.59c4.66-4.66,10.59-14.19,17.78-28.56c0.88-1.89,1.76-2.46,2.65-1.7
			c0.25,0.25,0.38,0.66,0.38,1.23c0,0.57-0.51,1.96-1.51,4.16c-1.01,2.21-1.92,4.19-2.74,5.96c-0.82,1.77-2.4,4.63-4.73,8.61
			c-2.34,3.97-4.45,7.03-6.34,9.18c-5.17,5.93-10.06,8.89-14.66,8.89c-4.61,0-7.92-1.39-9.93-4.16c-2.02-2.77-3.03-5.86-3.03-9.27
			s0.82-7.12,2.46-11.16l12.11-30.83c0.25-0.76,0.38-1.76,0.38-3.03c0-1.26-0.76-2.9-2.27-4.92l10.4-0.19c2.9,0,4.6,0.54,5.11,1.61
			c0.5,1.07,0.12,2.74-1.13,5.01l-15.13,35.37c-2.15,4.67-3.22,8.64-3.22,11.92C461.31,289.25,463.27,291.08,467.18,291.08z
			 M485.72,221.66c-1.77,1.51-3.72,2.27-5.87,2.27c-2.15,0-3.85-0.76-5.11-2.27c-1.26-1.51-1.77-3.34-1.51-5.49
			c0.38-2.14,1.45-3.97,3.21-5.48c1.76-1.51,3.72-2.27,5.87-2.27c2.14,0,3.88,0.76,5.2,2.27c1.32,1.51,1.8,3.34,1.42,5.48
			C488.55,218.32,487.48,220.14,485.72,221.66z"/>
		<path class="st0" d="M549.84,233.2c-15.51,27.24-23.27,45.02-23.27,53.34c0,3.28,1.2,4.92,3.59,4.92
			c6.43,0,15.07-10.91,25.92-32.72c0.76-1.76,1.51-2.46,2.27-2.08s1.13,0.88,1.13,1.51c0,0.63-0.25,1.39-0.76,2.27
			c-6.69,13.49-12.33,22.79-16.93,27.9C537.2,293.44,532.6,296,528,296c-4.61,0-8.1-1.76-10.5-5.3c-1.26-1.64-1.89-3.88-1.89-6.72
			c0-2.84,0.63-6.27,1.89-10.31c1.26-4.03,4.73-10.59,10.4-19.67c1.39-2.27,2.08-4.07,2.08-5.39c0-1.33-1.07-1.99-3.22-1.99
			c-2.15,0-6.24,2.84-12.29,8.51c-9.08,8.32-17.85,20.81-26.29,37.45c-0.76,1.26-1.61,2.05-2.55,2.36
			c-0.95,0.31-2.81,0.54-5.58,0.66c-2.77,0.12-4.6,0.44-5.48,0.94c2.02-4.03,5.99-12.29,11.92-24.78
			c10.59-22.07,17.53-34.68,20.81-37.83c1.51-1.51,3.59-2.27,6.24-2.27c0.5,0,1.8,0.19,3.88,0.57c2.08,0.38,3.62,0.44,4.63,0.19
			c-4.67,2.52-12.3,14.38-22.89,35.56c5.93-7.31,11.32-13.15,16.17-17.5c4.85-4.35,10.69-8.39,17.5-12.11
			c6.81-3.72,11.79-5.58,14.94-5.58C548.52,232.82,549.21,232.94,549.84,233.2z"/>
		<path class="st0" d="M543.03,355.02c-11.85,0-17.78-4.86-17.78-14.57c0-8.07,5.49-15.32,16.46-21.75
			c9.33-5.42,21.25-10.53,35.75-15.32c6.68-2.15,11.54-3.85,14.56-5.11c3.28-9.58,4.92-20.05,4.92-31.4c0-2.27-0.13-3.97-0.38-5.11
			c-3.53,7.19-8.39,14.56-14.56,22.13c-7.32,9.08-14.57,12.61-21.75,10.59c-6.56-2.77-9.84-8.2-9.84-16.27
			c0-10.84,5.42-22.76,16.27-35.75c5.93-7.06,12.86-11.54,20.81-13.43c2.14-0.63,4.29-0.94,6.43-0.94c5.67,0,11.22,1.89,16.65,5.67
			c2.02,1.64,3.03,3.03,3.03,4.16c0,1.13-0.38,2.24-1.13,3.31c-0.76,1.07-1.55,1.2-2.36,0.38c-0.82-0.82-1.36-1.61-1.61-2.36
			c-1.64-4.66-4.29-7-7.94-7c-6.69,0-14.19,4.67-22.51,14c-4.67,5.3-8.7,10.97-12.11,17.02c-4.16,7.57-6.24,13.4-6.24,17.5
			c0,4.1,1.26,6.84,3.78,8.23c0.88,0.38,1.76,0.57,2.65,0.57c2.9,0,6.53-1.99,10.88-5.96c4.35-3.97,8.38-9.01,12.11-15.13
			c3.72-6.11,6.08-10.88,7.09-14.28c1.01-3.4,2.24-5.55,3.69-6.43c1.45-0.88,3.06-1.39,4.82-1.51c1.76-0.12,2.96-0.44,3.59-0.95
			c1.01,5.67,1.51,12.33,1.51,19.96c0,7.63-1.32,16.3-3.97,26.01c5.8-4.16,9.93-7.88,12.39-11.16c2.46-3.28,4.41-6.24,5.86-8.89
			c1.45-2.65,2.74-5.27,3.88-7.85c1.14-2.58,1.89-4.26,2.27-5.01c0.38-0.76,1.01-1.23,1.89-1.42c0.88-0.19,1.33,0.22,1.33,1.23
			c0,0.63-0.19,1.39-0.57,2.27c-5.55,11.48-10.18,19.77-13.9,24.88c-3.72,5.11-8.8,9.17-15.23,12.2
			c-3.03,8.57-7.41,17.09-13.15,25.54c-5.74,8.45-12.96,15.89-21.66,22.32C560.25,351.8,551.61,355.02,543.03,355.02z
			 M529.23,344.04c0,4.79,3.09,7.19,9.27,7.19c3.66,0,7.79-1.08,12.39-3.22c4.6-2.14,8.42-4.35,11.44-6.62
			c5.17-4.16,10.84-10.34,17.02-18.54c4.66-6.56,8.26-12.93,10.78-19.11l-6.62,2.27c-19.67,6.81-33.55,12.86-41.62,18.16
			c-5.93,3.91-9.84,8.89-11.73,14.94C529.54,341.02,529.23,342.66,529.23,344.04z"/>
		<path class="st0" d="M630.99,217.12c-0.13,0-0.35-0.1-0.66-0.28c-0.32-0.19-0.47-0.5-0.47-0.95c0-0.44,0.12-0.85,0.38-1.23
			c0.25-0.38,2.05-1.83,5.39-4.35c3.34-2.52,6.97-5.14,10.88-7.85c3.91-2.71,6.75-4.73,8.51-6.05c1.76-1.33,3.5-1.99,5.2-1.99
			c1.7,0,3.21,0.31,4.54,0.94c1.32,0.63,1.99,1.42,1.99,2.36c0,0.95-0.19,1.8-0.57,2.55c-0.63,1.51-6.31,4.7-17.02,9.55
			C638.43,214.69,632.38,217.12,630.99,217.12z"/>
		<path class="st0" d="M697.01,291.65c1.64,0.25,2.77,0.38,3.4,0.38c5.04,0,10.03-2.96,14.94-8.89c2.65-3.28,7.38-11.54,14.19-24.78
			c0.25-0.63,0.69-0.95,1.33-0.95c1.14-0.12,1.7,0.32,1.7,1.33c0,0.25-0.28,0.98-0.85,2.17c-0.57,1.2-1.1,2.4-1.61,3.6
			c-0.51,1.2-1.33,2.93-2.46,5.2c-1.13,2.27-2.11,4.1-2.93,5.48c-0.82,1.39-1.86,3.09-3.12,5.11c-1.26,2.02-2.52,3.59-3.78,4.73
			l-3.97,4.16c-2.15,2.15-4.67,3.66-7.57,4.54c-4.67,1.51-9.21,1.64-13.62,0.38c-2.9,1.26-5.49,1.89-7.76,1.89
			c-8.96,0-14.38-3.53-16.27-10.59c-0.38-1.64-0.57-3.62-0.57-5.96c0-2.33,0.79-4.57,2.36-6.71c1.58-2.14,3.25-3.28,5.01-3.4
			c6.43-12.23,11.92-23.27,16.46-33.1c5.04-10.72,10.91-16.08,17.59-16.08c1.76,0,3.5,0.41,5.2,1.23c1.7,0.82,2.33,1.73,1.89,2.74
			c-0.44,1.01-1.36,1.2-2.74,0.57c-1.39-0.63-2.59-0.95-3.6-0.95c-1.01,0-1.89,0.19-2.65,0.57c-4.29,2.02-6.43,6.37-6.43,13.05
			c0,3.53,0.5,6.43,1.51,8.7c1.01,2.27,2.14,4.73,3.4,7.38c2.9,6.56,4.35,11.92,4.35,16.08s-1.33,8.26-3.97,12.3
			C703.82,285.85,700.67,289.13,697.01,291.65z M676.39,285.22c0,0.76,0.06,1.58,0.19,2.46c1.01,3.4,3.34,5.11,7,5.11
			c1.51,0,2.77-0.25,3.78-0.76c-4.67-2.9-7.19-7.63-7.57-14.19C677.53,280.11,676.39,282.57,676.39,285.22z M690.58,290.32
			c5.55-4.29,8.32-11.22,8.32-20.81c0-3.91-0.44-9.27-1.32-16.08c-0.88-6.81-1.33-11.41-1.33-13.81c0-2.39,0.06-4.03,0.19-4.92
			c-9.58,19.17-15.51,30.83-17.78,35c2.65,0,3.97,1.89,3.97,5.67C682.63,282.82,685.28,287.8,690.58,290.32z"/>
	</g>
	<g>
		<path d="M258.13,393.34v-41.98h2.93v39.22h20.01v2.75H258.13z"/>
		<path d="M306.54,393.34l-0.72-4.94h-0.23c-1.57,2.01-3.18,3.43-4.84,4.26c-1.66,0.83-3.61,1.25-5.87,1.25
			c-3.06,0-5.44-0.79-7.15-2.35c-1.7-1.57-2.56-3.74-2.56-6.52c0-3.04,1.27-5.41,3.8-7.09c2.54-1.68,6.21-2.57,11.01-2.67l5.94-0.17
			v-2.07c0-2.97-0.6-5.2-1.81-6.72c-1.21-1.51-3.15-2.27-5.83-2.27c-2.89,0-5.89,0.81-8.99,2.41l-1.06-2.47
			c3.43-1.61,6.81-2.41,10.16-2.41c3.43,0,5.99,0.89,7.68,2.67c1.69,1.78,2.54,4.56,2.54,8.33v20.76H306.54z M295.05,391.33
			c3.33,0,5.96-0.95,7.88-2.86c1.92-1.91,2.89-4.55,2.89-7.94v-3.07l-5.46,0.23c-4.38,0.21-7.51,0.89-9.37,2.05
			c-1.87,1.16-2.8,2.96-2.8,5.41c0,1.95,0.6,3.47,1.79,4.55C291.18,390.79,292.87,391.33,295.05,391.33z"/>
		<path d="M340.5,393.34V373.1c0-3.14-0.66-5.42-1.98-6.85c-1.32-1.42-3.37-2.14-6.14-2.14c-3.73,0-6.47,0.94-8.2,2.83
			s-2.6,4.94-2.6,9.17v17.23h-2.84v-31.21h2.41l0.55,4.27h0.17c2.03-3.25,5.64-4.88,10.82-4.88c7.08,0,10.62,3.8,10.62,11.4v20.41
			H340.5z"/>
		<path d="M364.85,361.53c2.26,0,4.21,0.41,5.86,1.23c1.65,0.82,3.12,2.23,4.42,4.22h0.17c-0.11-2.41-0.17-4.77-0.17-7.09v-11.23
			h2.81v44.67h-1.87l-0.72-4.77h-0.23c-2.37,3.56-5.78,5.34-10.22,5.34c-4.31,0-7.6-1.34-9.88-4.02c-2.28-2.68-3.42-6.58-3.42-11.71
			c0-5.4,1.13-9.52,3.39-12.38C357.26,362.95,360.54,361.53,364.85,361.53z M364.85,364.11c-3.41,0-5.97,1.2-7.68,3.59
			c-1.71,2.39-2.57,5.87-2.57,10.42c0,8.85,3.44,13.27,10.31,13.27c3.52,0,6.11-1.03,7.75-3.07s2.47-5.43,2.47-10.14v-0.49
			c0-4.82-0.81-8.29-2.43-10.41C371.08,365.17,368.47,364.11,364.85,364.11z"/>
		<path d="M391.26,393.34h-2.84v-44.67h2.84V393.34z"/>
		<path d="M420.66,393.34l-0.72-4.94h-0.23c-1.57,2.01-3.18,3.43-4.84,4.26c-1.66,0.83-3.61,1.25-5.87,1.25
			c-3.06,0-5.44-0.79-7.15-2.35c-1.7-1.57-2.56-3.74-2.56-6.52c0-3.04,1.27-5.41,3.8-7.09c2.54-1.68,6.21-2.57,11.01-2.67l5.94-0.17
			v-2.07c0-2.97-0.6-5.2-1.81-6.72c-1.21-1.51-3.15-2.27-5.83-2.27c-2.89,0-5.89,0.81-8.99,2.41l-1.06-2.47
			c3.43-1.61,6.81-2.41,10.16-2.41c3.43,0,5.99,0.89,7.68,2.67c1.69,1.78,2.54,4.56,2.54,8.33v20.76H420.66z M409.18,391.33
			c3.33,0,5.96-0.95,7.88-2.86c1.92-1.91,2.89-4.55,2.89-7.94v-3.07l-5.46,0.23c-4.38,0.21-7.51,0.89-9.37,2.05
			c-1.87,1.16-2.8,2.96-2.8,5.41c0,1.95,0.6,3.47,1.79,4.55C405.31,390.79,407,391.33,409.18,391.33z M404.59,353.46
			c0-0.88,0.15-1.51,0.45-1.89c0.3-0.38,0.75-0.58,1.36-0.58c1.23,0,1.84,0.83,1.84,2.47c0,1.65-0.61,2.47-1.84,2.47
			C405.19,355.93,404.59,355.11,404.59,353.46z M415.53,353.46c0-0.88,0.15-1.51,0.45-1.89c0.3-0.38,0.75-0.58,1.36-0.58
			c1.23,0,1.84,0.83,1.84,2.47c0,1.65-0.61,2.47-1.84,2.47C416.13,355.93,415.53,355.11,415.53,353.46z"/>
		<path d="M444.29,361.53c2.26,0,4.21,0.41,5.86,1.23c1.65,0.82,3.12,2.23,4.42,4.22h0.17c-0.11-2.41-0.17-4.77-0.17-7.09v-11.23
			h2.81v44.67h-1.87l-0.72-4.77h-0.23c-2.37,3.56-5.78,5.34-10.22,5.34c-4.31,0-7.6-1.34-9.88-4.02c-2.28-2.68-3.42-6.58-3.42-11.71
			c0-5.4,1.13-9.52,3.39-12.38C436.7,362.95,439.99,361.53,444.29,361.53z M444.29,364.11c-3.41,0-5.97,1.2-7.68,3.59
			c-1.71,2.39-2.57,5.87-2.57,10.42c0,8.85,3.44,13.27,10.31,13.27c3.52,0,6.11-1.03,7.75-3.07s2.47-5.43,2.47-10.14v-0.49
			c0-4.82-0.81-8.29-2.43-10.41C450.53,365.17,447.91,364.11,444.29,364.11z"/>
		<path d="M480.33,393.91c-4.46,0-7.95-1.41-10.48-4.22c-2.53-2.82-3.79-6.74-3.79-11.77c0-5.17,1.31-9.19,3.93-12.07
			c2.62-2.88,6.21-4.32,10.77-4.32c2.7,0,5.28,0.47,7.75,1.41l-0.77,2.53c-2.7-0.9-5.04-1.35-7.03-1.35c-3.83,0-6.73,1.18-8.7,3.55
			c-1.97,2.36-2.96,5.77-2.96,10.21c0,4.21,0.99,7.51,2.96,9.89c1.97,2.39,4.73,3.58,8.27,3.58c2.83,0,5.46-0.51,7.89-1.52v2.64
			C486.18,393.43,483.56,393.91,480.33,393.91z"/>
		<path d="M517.57,393.34V373.1c0-3.14-0.66-5.42-1.98-6.85c-1.32-1.42-3.37-2.14-6.14-2.14c-3.73,0-6.47,0.94-8.2,2.83
			s-2.6,4.94-2.6,9.17v17.23h-2.84v-44.67h2.84v14.21l-0.14,3.99h0.2c1.17-1.87,2.64-3.23,4.42-4.08c1.78-0.85,3.99-1.26,6.63-1.26
			c7.08,0,10.62,3.8,10.62,11.4v20.41H517.57z"/>
		<path d="M543.09,393.91c-4.54,0-8.07-1.4-10.61-4.19c-2.54-2.79-3.8-6.71-3.8-11.74c0-4.98,1.23-8.96,3.68-11.96
			c2.45-3,5.75-4.49,9.91-4.49c3.67,0,6.57,1.28,8.7,3.84c2.12,2.57,3.19,6.05,3.19,10.45v2.3h-22.48c0.04,4.29,1.04,7.56,3,9.82
			c1.96,2.26,4.77,3.39,8.43,3.39c1.78,0,3.35-0.12,4.7-0.37c1.35-0.25,3.06-0.78,5.12-1.61v2.58c-1.76,0.76-3.39,1.29-4.88,1.56
			C546.54,393.78,544.89,393.91,543.09,393.91z M542.26,364.05c-3.01,0-5.42,0.99-7.24,2.97s-2.88,4.84-3.19,8.57h19.29
			c0-3.62-0.78-6.45-2.35-8.48C547.21,365.07,545.03,364.05,542.26,364.05z"/>
		<path d="M584.52,393.34V373.1c0-3.14-0.66-5.42-1.98-6.85c-1.32-1.42-3.37-2.14-6.14-2.14c-3.73,0-6.47,0.94-8.2,2.83
			s-2.6,4.94-2.6,9.17v17.23h-2.84v-31.21h2.41l0.55,4.27h0.17c2.03-3.25,5.64-4.88,10.82-4.88c7.08,0,10.62,3.8,10.62,11.4v20.41
			H584.52z"/>
	</g>
	<line class="st1" x1="120.19" y1="332.29" x2="504.15" y2="332.29"/>
	<line class="st1" x1="612.13" y1="333.14" x2="732.57" y2="333.14"/>
	<line class="st1" x1="120.19" y1="415.26" x2="732.57" y2="415.26"/>
</g>
</svg>
